<?xml version="1.0" standalone="no"?>
<!DOCTYPE svg PUBLIC "-//W3C//DTD SVG 20010904//EN"
 "http://www.w3.org/TR/2001/REC-SVG-20010904/DTD/svg10.dtd">
<svg version="1.0" xmlns="http://www.w3.org/2000/svg"
 width="192.000000pt" height="232.000000pt" viewBox="0 0 192.000000 232.000000"
 preserveAspectRatio="xMidYMid meet">
<metadata>
Created by potrace 1.10, written by Peter Selinger 2001-2011
</metadata>
<g transform="translate(0.000000,232.000000) scale(0.100000,-0.100000)"
fill="#000000" stroke="none">
<path d="M1024 1672 c-27 -26 -57 -60 -67 -75 -16 -24 -21 -26 -40 -15 -25 13
-271 17 -329 5 -40 -8 -142 -97 -121 -104 7 -3 25 9 39 27 24 28 76 63 89 59
3 -1 42 1 88 5 49 4 115 1 165 -6 l82 -13 -21 -30 -22 -31 -23 23 c-33 33 -96
32 -129 -2 -49 -48 -20 -125 46 -125 37 0 87 27 95 52 3 10 10 18 15 18 5 0
12 8 16 18 3 9 20 35 37 57 18 22 40 53 51 70 10 16 29 40 41 54 l22 24 8 -69
c5 -38 8 -126 8 -196 0 -121 7 -153 21 -108 7 22 25 27 25 8 0 -7 7 0 15 16 8
15 15 35 15 43 0 8 5 11 10 8 6 -4 8 -11 5 -16 -4 -5 -2 -9 3 -9 13 0 23 54
11 58 -5 2 -9 8 -9 13 0 4 8 5 17 2 12 -5 15 -2 11 8 -4 9 2 20 13 27 15 10
19 24 19 68 0 54 -1 56 -22 50 -13 -3 -26 -6 -30 -6 -5 0 -8 -6 -8 -14 0 -8
-8 -34 -19 -58 -12 -30 -15 -48 -9 -58 11 -17 -14 -90 -30 -90 -6 0 -10 50
-10 115 0 130 -11 245 -22 245 -4 0 -30 -22 -56 -48z m190 -110 c9 -15 -6 -52
-20 -52 -16 0 -16 5 -8 38 6 22 19 29 28 14z m-376 -58 c40 -28 20 -74 -40
-88 -39 -9 -71 26 -57 62 17 45 56 55 97 26z m356 -30 c-10 -14 -21 -21 -26
-16 -14 14 2 42 23 42 19 0 19 -1 3 -26z"/>
<path d="M575 1538 c-17 -53 -23 -92 -15 -111 5 -12 9 -17 10 -12 1 6 3 17 5
25 10 52 16 110 11 110 -4 0 -8 -6 -11 -12z"/>
<path d="M352 1514 c-10 -18 7 -121 32 -191 14 -41 14 -43 -4 -43 -11 0 -20
-4 -20 -10 0 -5 7 -10 15 -10 13 0 13 -3 -1 -26 -12 -18 -14 -28 -6 -36 12
-12 46 -3 38 10 -3 5 4 26 14 48 11 21 20 52 20 69 l-1 30 -12 -29 c-14 -32
-13 -36 -55 154 -5 24 -4 24 36 -10 33 -28 40 -40 37 -61 -6 -38 16 -63 47
-56 26 7 38 30 38 75 0 23 -40 47 -64 39 -6 -3 -20 3 -31 13 -11 10 -32 25
-47 34 -25 16 -27 16 -36 0z"/>
<path d="M554 1364 c-71 -37 -88 -52 -109 -99 l-24 -50 25 -3 c17 -2 24 -10
24 -26 0 -19 -4 -22 -25 -18 -14 2 -25 9 -25 14 0 5 -5 6 -11 3 -5 -4 -8 -19
-5 -33 3 -15 2 -67 -3 -117 -8 -85 -7 -91 13 -108 47 -40 57 -47 65 -47 5 0
11 -7 15 -15 11 -30 26 -14 26 30 0 25 3 45 8 45 15 0 27 -16 27 -35 0 -12 6
-19 14 -17 7 2 21 -4 30 -12 27 -24 142 -14 245 23 49 17 96 36 103 42 9 8 13
8 13 1 0 -11 -101 -81 -105 -72 -1 3 -9 -1 -17 -8 -42 -34 -142 -46 -174 -20
-23 17 -40 -5 -67 -88 -21 -65 -25 -89 -17 -104 6 -11 15 -20 20 -20 5 0 25
-14 45 -31 26 -23 35 -27 35 -15 0 9 -9 25 -20 36 -20 20 -26 40 -12 40 8 0
44 -63 50 -88 12 -51 13 -80 3 -86 -7 -5 -11 5 -11 28 0 21 -5 37 -12 37 -7 1
-20 3 -28 4 -8 1 -21 3 -28 4 -9 1 -10 6 -2 20 18 34 11 36 -20 6 -27 -26 -29
-31 -15 -41 9 -7 33 -10 57 -7 l40 6 -16 -31 c-15 -28 -14 -32 5 -56 22 -28
39 -26 39 4 0 10 4 21 10 25 17 11 1 -57 -19 -79 -27 -28 -62 -111 -56 -128 3
-8 19 -22 35 -32 l30 -17 -35 -35 c-19 -19 -35 -44 -35 -55 0 -20 3 -20 75 -3
17 4 34 6 38 6 14 -4 69 29 93 55 23 25 30 65 18 97 -11 30 -26 17 -20 -17 5
-28 2 -37 -25 -63 l-32 -29 7 29 7 30 -21 -25 c-18 -20 -21 -21 -15 -5 6 19 5
19 -13 3 -22 -20 -39 -23 -23 -3 9 11 4 20 -25 43 -29 23 -34 33 -29 53 3 14
18 34 32 44 26 19 26 19 21 -2 -4 -12 -3 -24 2 -27 10 -6 23 62 14 76 -4 8 5
9 32 5 76 -12 156 -5 231 19 38 12 42 12 46 -6 7 -25 39 -24 61 0 17 18 17 22
2 43 -9 12 -16 17 -16 11 0 -7 4 -14 10 -18 14 -9 1 -32 -21 -38 -14 -4 -23 4
-36 31 -9 21 -17 38 -18 40 -1 1 -18 -5 -38 -13 -20 -8 -42 -14 -49 -13 -8 2
-12 -6 -11 -20 2 -19 -2 -22 -32 -22 -40 0 -50 26 -12 32 20 3 22 8 19 53 -3
49 -8 63 -16 54 -3 -3 0 -24 5 -48 5 -24 8 -46 5 -48 -7 -7 -121 -6 -143 1
-14 5 -22 21 -30 61 l-9 54 30 3 c22 2 39 -4 59 -22 28 -25 29 -25 42 -5 8 11
19 25 25 32 5 7 10 16 10 21 0 5 13 12 29 15 16 3 42 18 57 33 l29 26 -47 -26
c-25 -14 -54 -23 -62 -20 -10 4 -16 1 -16 -7 0 -8 -9 -25 -20 -39 l-19 -25
-28 28 c-22 22 -30 42 -39 100 -6 39 -14 80 -18 89 -8 18 9 29 68 44 21 5 24
1 30 -35 3 -23 11 -41 16 -41 14 0 13 15 -4 55 -8 19 -11 35 -6 35 5 0 29 16
54 35 26 19 48 35 51 35 3 0 5 -22 5 -50 0 -63 17 -65 55 -10 l28 41 24 -22
c12 -13 23 -34 23 -48 0 -18 3 -22 9 -13 6 10 16 4 40 -23 33 -38 35 -61 3
-32 -10 10 -27 17 -38 17 -25 -1 -64 -34 -64 -55 0 -9 -6 -15 -12 -12 -7 2
-13 10 -13 18 0 18 -33 38 -63 39 -33 0 -23 -24 11 -28 25 -3 32 -12 28 -35
-1 -5 3 -6 9 -2 19 12 23 -26 6 -68 -22 -60 -20 -82 9 -95 14 -6 25 -16 25
-22 0 -7 6 -8 18 -1 10 6 29 7 41 4 13 -3 29 1 41 12 21 19 27 45 11 45 -5 0
-17 3 -26 7 -14 5 -16 2 -10 -15 6 -20 3 -22 -38 -22 -29 0 -49 6 -59 18 -14
15 -13 23 11 87 30 78 59 103 105 91 39 -10 42 -31 12 -87 -15 -27 -25 -50
-22 -50 3 -1 9 -2 14 -3 33 -6 71 -31 74 -49 2 -14 24 -31 68 -54 36 -18 71
-33 78 -33 16 0 10 51 -14 135 -13 46 -19 53 -75 85 -46 26 -68 46 -86 80 -14
25 -32 51 -41 58 -15 11 -13 19 20 85 20 39 39 82 42 94 4 12 16 25 27 28 17
6 28 25 14 25 -16 0 -55 -34 -55 -48 0 -8 -3 -13 -6 -9 -8 8 45 169 62 187 12
12 14 12 14 0 0 -8 9 0 21 19 11 18 19 34 17 36 -10 9 -94 45 -105 45 -29 0
-10 -18 32 -30 47 -13 58 -33 26 -49 -14 -8 -35 -3 -85 18 -75 31 -88 41 -59
41 26 0 39 16 48 58 8 38 -1 43 -15 6 -8 -19 -15 -24 -30 -19 -11 4 -20 2 -20
-4 0 -6 5 -11 10 -11 6 0 10 -4 10 -9 0 -5 -11 -8 -25 -8 -30 0 -46 -13 -26
-21 10 -3 7 -8 -10 -18 -24 -13 -18 -17 26 -15 15 0 28 -16 53 -68 30 -64 34
-110 9 -94 -5 3 -7 1 -3 -5 3 -5 2 -12 -3 -14 -4 -1 -30 -34 -56 -73 -59 -87
-81 -115 -90 -115 -3 0 -6 35 -5 78 0 42 -2 122 -6 177 l-6 100 29 16 c17 9
30 23 30 32 0 15 -4 14 -33 -4 -36 -22 -41 -19 -50 39 -4 23 -12 46 -18 51
-10 8 -138 22 -320 34 -21 2 -49 -3 -62 -9z m291 -30 c33 -3 65 -10 70 -15 38
-37 -275 -134 -363 -113 -15 4 -35 14 -44 22 -10 8 -18 10 -18 4 0 -5 -9 -8
-20 -5 -25 7 -25 8 1 50 41 66 68 75 199 68 63 -3 142 -8 175 -11z m95 -85 c0
-10 3 -19 8 -19 4 0 8 -58 10 -128 4 -147 5 -145 -80 -168 -97 -26 -204 -27
-283 -1 -63 21 -70 26 -68 48 1 13 3 52 5 86 3 66 7 73 28 48 18 -22 33 -19
65 15 34 35 45 38 45 9 0 -14 6 -19 18 -17 9 1 31 -6 47 -18 74 -50 158 -14
168 74 4 35 2 42 -9 38 -10 -4 -14 2 -14 21 0 23 2 24 17 12 14 -12 15 -12 9
0 -5 8 -3 16 5 21 17 11 29 3 29 -21z m290 -72 c-2 -23 -30 -91 -36 -87 -10 6
-10 38 0 61 5 11 -2 20 -21 30 -28 14 -43 28 -43 41 0 3 23 -5 50 -18 28 -13
50 -25 50 -27z m-484 9 c-3 -12 -6 -24 -6 -28 0 -4 -7 -4 -17 -1 -12 5 -14 3
-8 -8 6 -10 3 -9 -11 2 -25 22 -64 34 -64 20 0 -6 -5 -11 -11 -11 -8 0 -8 4 1
14 7 9 26 14 51 13 23 -2 39 2 39 9 0 6 7 11 16 11 11 0 14 -7 10 -21z m118 0
c26 -40 -1 -76 -57 -76 -44 0 -64 51 -35 88 19 22 74 15 92 -12z m-256 -34 c5
-16 -27 -27 -40 -14 -6 6 -16 8 -23 6 -6 -3 -12 2 -12 10 0 18 68 17 75 -2z
m-113 -61 c-3 -31 -8 -76 -11 -101 -3 -33 -2 -41 5 -30 9 12 11 10 11 -12 0
-14 3 -33 6 -42 11 -27 -15 -18 -56 22 l-40 37 12 92 12 92 33 -1 34 -1 -6
-56z m683 -78 c-11 -32 -20 -66 -20 -75 1 -10 -5 -18 -11 -18 -8 0 -9 -3 -1
-8 8 -5 8 -15 -1 -35 l-11 -27 -32 28 c-38 34 -40 44 -10 40 18 -2 24 5 37 42
18 51 52 110 63 110 4 0 -2 -26 -14 -57z m-455 -213 c9 0 17 -1 17 -2 1 -2 9
-47 19 -100 13 -75 14 -98 5 -98 -7 0 -19 -3 -28 -6 -11 -4 -22 9 -40 51 -27
59 -26 59 -83 38 -14 -6 -18 18 -5 33 5 5 15 29 22 54 19 62 17 60 48 44 15
-7 35 -14 45 -14z m574 -152 c21 -10 35 -44 59 -142 l7 -29 -61 33 c-40 21
-62 40 -66 55 -4 16 -16 26 -36 30 -16 4 -32 10 -34 14 -3 4 7 26 20 50 l26
42 31 -21 c18 -12 42 -26 54 -32z m-553 -466 c3 -4 -8 -13 -25 -19 -29 -11
-46 -3 -34 17 7 12 52 13 59 2z"/>
<path d="M650 959 c-12 -22 -4 -42 8 -22 9 14 51 14 70 0 19 -15 25 -2 10 22
-14 23 -38 28 -38 9 0 -9 -3 -9 -12 0 -17 17 -26 15 -38 -9z"/>
<path d="M871 718 c1 -13 4 -34 8 -48 7 -24 8 -24 12 8 3 17 2 32 -2 32 -5 0
-6 7 -3 15 4 8 1 15 -5 15 -6 0 -11 -10 -10 -22z"/>
<path d="M1556 692 c-3 -5 3 -12 15 -15 11 -3 19 -11 18 -19 -1 -7 -1 -24 0
-38 1 -18 4 -21 10 -11 5 7 6 22 4 32 -6 22 7 25 26 7 10 -11 10 -8 0 15 -7
15 -18 27 -25 27 -7 0 -19 3 -27 6 -8 3 -18 1 -21 -4z"/>
<path d="M1663 650 c-6 -16 -8 -30 -3 -30 5 0 10 6 13 13 10 27 16 -2 7 -33
-10 -34 -6 -50 7 -36 11 11 9 109 -2 113 -6 2 -16 -10 -22 -27z"/>
<path d="M1510 630 c0 -5 11 -17 24 -26 30 -19 50 -74 41 -113 -11 -50 -79
-117 -141 -140 -111 -42 -197 -16 -246 74 -14 27 -25 52 -22 56 2 4 -3 10 -12
13 -23 9 -24 8 -24 -14 0 -11 4 -20 9 -20 13 0 40 -79 45 -129 4 -49 -7 -98
-25 -115 -9 -8 -10 -7 -4 4 4 8 -6 2 -24 -15 -26 -24 -31 -26 -26 -10 5 13 -4
8 -24 -15 -17 -19 -31 -30 -31 -25 0 6 6 17 13 25 10 12 9 12 -5 1 -16 -12
-18 -11 -18 7 0 13 -10 24 -30 31 -57 19 -60 81 -8 154 l23 32 -33 -23 c-17
-13 -35 -34 -38 -48 -5 -20 -12 -24 -41 -24 -23 0 -33 -4 -30 -12 2 -7 15 -12
29 -10 22 3 26 -2 32 -31 7 -39 20 -52 57 -62 l26 -6 -29 -31 c-35 -38 -38
-70 -5 -65 34 6 77 28 134 70 54 40 63 53 63 92 l0 24 37 -22 c56 -32 172 -31
239 3 75 38 167 135 184 196 8 27 13 52 12 57 -1 4 7 7 17 7 11 0 27 7 35 16
16 16 13 34 -5 34 -6 0 -7 -5 -4 -10 3 -6 -6 -15 -20 -20 -15 -6 -30 -22 -36
-40 -6 -16 -15 -30 -20 -30 -5 0 -9 -14 -9 -31 0 -50 -110 -142 -208 -174 -48
-16 -56 -16 -127 0 l-75 16 0 42 c0 23 4 37 8 32 37 -52 145 -62 234 -21 65
31 79 41 112 90 29 44 34 41 10 -7 l-15 -32 25 28 c22 24 24 33 19 80 -3 28
-14 68 -25 87 -21 40 -23 54 -6 44 7 -4 8 -3 4 4 -9 14 -66 16 -66 2z"/>
<path d="M781 554 c-1 -15 28 -72 41 -80 6 -4 8 -1 4 7 -3 8 -9 22 -12 32 -4
9 -10 17 -14 17 -5 0 -11 8 -13 18 -3 9 -5 12 -6 6z"/>
</g>
</svg>
