<svg width="192" height="232" xmlns="http://www.w3.org/2000/svg" preserveAspectRatio="xMidYMid meet" version="1.0">
 <metadata>Created by potrace 1.10, written by Peter Selinger 2001-2011</metadata>

 <g>
  <title>Layer 1</title>
  <g id="svg_1" fill="#000000" transform="translate(0, 232) scale(0.1, -0.1)">
   <path fill="#ffffff" id="svg_2" d="m1024,1672c-27,-26 -57,-60 -67,-75c-16,-24 -21,-26 -40,-15c-25,13 -271,17 -329,5c-40,-8 -142,-97 -121,-104c7,-3 25,9 39,27c24,28 76,63 89,59c3,-1 42,1 88,5c49,4 115,1 165,-6l82,-13l-21,-30l-22,-31l-23,23c-33,33 -96,32 -129,-2c-49,-48 -20,-125 46,-125c37,0 87,27 95,52c3,10 10,18 15,18c5,0 12,8 16,18c3,9 20,35 37,57c18,22 40,53 51,70c10,16 29,40 41,54l22,24l8,-69c5,-38 8,-126 8,-196c0,-121 7,-153 21,-108c7,22 25,27 25,8c0,-7 7,0 15,16c8,15 15,35 15,43c0,8 5,11 10,8c6,-4 8,-11 5,-16c-4,-5 -2,-9 3,-9c13,0 23,54 11,58c-5,2 -9,8 -9,13c0,4 8,5 17,2c12,-5 15,-2 11,8c-4,9 2,20 13,27c15,10 19,24 19,68c0,54 -1,56 -22,50c-13,-3 -26,-6 -30,-6c-5,0 -8,-6 -8,-14c0,-8 -8,-34 -19,-58c-12,-30 -15,-48 -9,-58c11,-17 -14,-90 -30,-90c-6,0 -10,50 -10,115c0,130 -11,245 -22,245c-4,0 -30,-22 -56,-48zm190,-110c9,-15 -6,-52 -20,-52c-16,0 -16,5 -8,38c6,22 19,29 28,14zm-376,-58c40,-28 20,-74 -40,-88c-39,-9 -71,26 -57,62c17,45 56,55 97,26zm356,-30c-10,-14 -21,-21 -26,-16c-14,14 2,42 23,42c19,0 19,-1 3,-26z"/>
   <path fill="#ffffff" id="svg_3" d="m575,1538c-17,-53 -23,-92 -15,-111c5,-12 9,-17 10,-12c1,6 3,17 5,25c10,52 16,110 11,110c-4,0 -8,-6 -11,-12z"/>
   <path fill="#ffffff" id="svg_4" d="m352,1514c-10,-18 7,-121 32,-191c14,-41 14,-43 -4,-43c-11,0 -20,-4 -20,-10c0,-5 7,-10 15,-10c13,0 13,-3 -1,-26c-12,-18 -14,-28 -6,-36c12,-12 46,-3 38,10c-3,5 4,26 14,48c11,21 20,52 20,69l-1,30l-12,-29c-14,-32 -13,-36 -55,154c-5,24 -4,24 36,-10c33,-28 40,-40 37,-61c-6,-38 16,-63 47,-56c26,7 38,30 38,75c0,23 -40,47 -64,39c-6,-3 -20,3 -31,13c-11,10 -32,25 -47,34c-25,16 -27,16 -36,0z"/>
   <path fill="#ffffff" id="svg_5" d="m554,1364c-71,-37 -88,-52 -109,-99l-24,-50l25,-3c17,-2 24,-10 24,-26c0,-19 -4,-22 -25,-18c-14,2 -25,9 -25,14c0,5 -5,6 -11,3c-5,-4 -8,-19 -5,-33c3,-15 2,-67 -3,-117c-8,-85 -7,-91 13,-108c47,-40 57,-47 65,-47c5,0 11,-7 15,-15c11,-30 26,-14 26,30c0,25 3,45 8,45c15,0 27,-16 27,-35c0,-12 6,-19 14,-17c7,2 21,-4 30,-12c27,-24 142,-14 245,23c49,17 96,36 103,42c9,8 13,8 13,1c0,-11 -101,-81 -105,-72c-1,3 -9,-1 -17,-8c-42,-34 -142,-46 -174,-20c-23,17 -40,-5 -67,-88c-21,-65 -25,-89 -17,-104c6,-11 15,-20 20,-20c5,0 25,-14 45,-31c26,-23 35,-27 35,-15c0,9 -9,25 -20,36c-20,20 -26,40 -12,40c8,0 44,-63 50,-88c12,-51 13,-80 3,-86c-7,-5 -11,5 -11,28c0,21 -5,37 -12,37c-7,1 -20,3 -28,4c-8,1 -21,3 -28,4c-9,1 -10,6 -2,20c18,34 11,36 -20,6c-27,-26 -29,-31 -15,-41c9,-7 33,-10 57,-7l40,6l-16,-31c-15,-28 -14,-32 5,-56c22,-28 39,-26 39,4c0,10 4,21 10,25c17,11 1,-57 -19,-79c-27,-28 -62,-111 -56,-128c3,-8 19,-22 35,-32l30,-17l-35,-35c-19,-19 -35,-44 -35,-55c0,-20 3,-20 75,-3c17,4 34,6 38,6c14,-4 69,29 93,55c23,25 30,65 18,97c-11,30 -26,17 -20,-17c5,-28 2,-37 -25,-63l-32,-29l7,29l7,30l-21,-25c-18,-20 -21,-21 -15,-5c6,19 5,19 -13,3c-22,-20 -39,-23 -23,-3c9,11 4,20 -25,43c-29,23 -34,33 -29,53c3,14 18,34 32,44c26,19 26,19 21,-2c-4,-12 -3,-24 2,-27c10,-6 23,62 14,76c-4,8 5,9 32,5c76,-12 156,-5 231,19c38,12 42,12 46,-6c7,-25 39,-24 61,0c17,18 17,22 2,43c-9,12 -16,17 -16,11c0,-7 4,-14 10,-18c14,-9 1,-32 -21,-38c-14,-4 -23,4 -36,31c-9,21 -17,38 -18,40c-1,1 -18,-5 -38,-13c-20,-8 -42,-14 -49,-13c-8,2 -12,-6 -11,-20c2,-19 -2,-22 -32,-22c-40,0 -50,26 -12,32c20,3 22,8 19,53c-3,49 -8,63 -16,54c-3,-3 0,-24 5,-48c5,-24 8,-46 5,-48c-7,-7 -121,-6 -143,1c-14,5 -22,21 -30,61l-9,54l30,3c22,2 39,-4 59,-22c28,-25 29,-25 42,-5c8,11 19,25 25,32c5,7 10,16 10,21c0,5 13,12 29,15c16,3 42,18 57,33l29,26l-47,-26c-25,-14 -54,-23 -62,-20c-10,4 -16,1 -16,-7c0,-8 -9,-25 -20,-39l-19,-25l-28,28c-22,22 -30,42 -39,100c-6,39 -14,80 -18,89c-8,18 9,29 68,44c21,5 24,1 30,-35c3,-23 11,-41 16,-41c14,0 13,15 -4,55c-8,19 -11,35 -6,35c5,0 29,16 54,35c26,19 48,35 51,35c3,0 5,-22 5,-50c0,-63 17,-65 55,-10l28,41l24,-22c12,-13 23,-34 23,-48c0,-18 3,-22 9,-13c6,10 16,4 40,-23c33,-38 35,-61 3,-32c-10,10 -27,17 -38,17c-25,-1 -64,-34 -64,-55c0,-9 -6,-15 -12,-12c-7,2 -13,10 -13,18c0,18 -33,38 -63,39c-33,0 -23,-24 11,-28c25,-3 32,-12 28,-35c-1,-5 3,-6 9,-2c19,12 23,-26 6,-68c-22,-60 -20,-82 9,-95c14,-6 25,-16 25,-22c0,-7 6,-8 18,-1c10,6 29,7 41,4c13,-3 29,1 41,12c21,19 27,45 11,45c-5,0 -17,3 -26,7c-14,5 -16,2 -10,-15c6,-20 3,-22 -38,-22c-29,0 -49,6 -59,18c-14,15 -13,23 11,87c30,78 59,103 105,91c39,-10 42,-31 12,-87c-15,-27 -25,-50 -22,-50c3,-1 9,-2 14,-3c33,-6 71,-31 74,-49c2,-14 24,-31 68,-54c36,-18 71,-33 78,-33c16,0 10,51 -14,135c-13,46 -19,53 -75,85c-46,26 -68,46 -86,80c-14,25 -32,51 -41,58c-15,11 -13,19 20,85c20,39 39,82 42,94c4,12 16,25 27,28c17,6 28,25 14,25c-16,0 -55,-34 -55,-48c0,-8 -3,-13 -6,-9c-8,8 45,169 62,187c12,12 14,12 14,0c0,-8 9,0 21,19c11,18 19,34 17,36c-10,9 -94,45 -105,45c-29,0 -10,-18 32,-30c47,-13 58,-33 26,-49c-14,-8 -35,-3 -85,18c-75,31 -88,41 -59,41c26,0 39,16 48,58c8,38 -1,43 -15,6c-8,-19 -15,-24 -30,-19c-11,4 -20,2 -20,-4c0,-6 5,-11 10,-11c6,0 10,-4 10,-9c0,-5 -11,-8 -25,-8c-30,0 -46,-13 -26,-21c10,-3 7,-8 -10,-18c-24,-13 -18,-17 26,-15c15,0 28,-16 53,-68c30,-64 34,-110 9,-94c-5,3 -7,1 -3,-5c3,-5 2,-12 -3,-14c-4,-1 -30,-34 -56,-73c-59,-87 -81,-115 -90,-115c-3,0 -6,35 -5,78c0,42 -2,122 -6,177l-6,100l29,16c17,9 30,23 30,32c0,15 -4,14 -33,-4c-36,-22 -41,-19 -50,39c-4,23 -12,46 -18,51c-10,8 -138,22 -320,34c-21,2 -49,-3 -62,-9zm291,-30c33,-3 65,-10 70,-15c38,-37 -275,-134 -363,-113c-15,4 -35,14 -44,22c-10,8 -18,10 -18,4c0,-5 -9,-8 -20,-5c-25,7 -25,8 1,50c41,66 68,75 199,68c63,-3 142,-8 175,-11zm95,-85c0,-10 3,-19 8,-19c4,0 8,-58 10,-128c4,-147 5,-145 -80,-168c-97,-26 -204,-27 -283,-1c-63,21 -70,26 -68,48c1,13 3,52 5,86c3,66 7,73 28,48c18,-22 33,-19 65,15c34,35 45,38 45,9c0,-14 6,-19 18,-17c9,1 31,-6 47,-18c74,-50 158,-14 168,74c4,35 2,42 -9,38c-10,-4 -14,2 -14,21c0,23 2,24 17,12c14,-12 15,-12 9,0c-5,8 -3,16 5,21c17,11 29,3 29,-21zm290,-72c-2,-23 -30,-91 -36,-87c-10,6 -10,38 0,61c5,11 -2,20 -21,30c-28,14 -43,28 -43,41c0,3 23,-5 50,-18c28,-13 50,-25 50,-27zm-484,9c-3,-12 -6,-24 -6,-28c0,-4 -7,-4 -17,-1c-12,5 -14,3 -8,-8c6,-10 3,-9 -11,2c-25,22 -64,34 -64,20c0,-6 -5,-11 -11,-11c-8,0 -8,4 1,14c7,9 26,14 51,13c23,-2 39,2 39,9c0,6 7,11 16,11c11,0 14,-7 10,-21zm118,0c26,-40 -1,-76 -57,-76c-44,0 -64,51 -35,88c19,22 74,15 92,-12zm-256,-34c5,-16 -27,-27 -40,-14c-6,6 -16,8 -23,6c-6,-3 -12,2 -12,10c0,18 68,17 75,-2zm-113,-61c-3,-31 -8,-76 -11,-101c-3,-33 -2,-41 5,-30c9,12 11,10 11,-12c0,-14 3,-33 6,-42c11,-27 -15,-18 -56,22l-40,37l12,92l12,92l33,-1l34,-1l-6,-56zm683,-78c-11,-32 -20,-66 -20,-75c1,-10 -5,-18 -11,-18c-8,0 -9,-3 -1,-8c8,-5 8,-15 -1,-35l-11,-27l-32,28c-38,34 -40,44 -10,40c18,-2 24,5 37,42c18,51 52,110 63,110c4,0 -2,-26 -14,-57zm-455,-213c9,0 17,-1 17,-2c1,-2 9,-47 19,-100c13,-75 14,-98 5,-98c-7,0 -19,-3 -28,-6c-11,-4 -22,9 -40,51c-27,59 -26,59 -83,38c-14,-6 -18,18 -5,33c5,5 15,29 22,54c19,62 17,60 48,44c15,-7 35,-14 45,-14zm574,-152c21,-10 35,-44 59,-142l7,-29l-61,33c-40,21 -62,40 -66,55c-4,16 -16,26 -36,30c-16,4 -32,10 -34,14c-3,4 7,26 20,50l26,42l31,-21c18,-12 42,-26 54,-32zm-553,-466c3,-4 -8,-13 -25,-19c-29,-11 -46,-3 -34,17c7,12 52,13 59,2z"/>
   <path fill="#ffffff" id="svg_6" d="m650,959c-12,-22 -4,-42 8,-22c9,14 51,14 70,0c19,-15 25,-2 10,22c-14,23 -38,28 -38,9c0,-9 -3,-9 -12,0c-17,17 -26,15 -38,-9z"/>
   <path fill="#ffffff" id="svg_7" d="m871,718c1,-13 4,-34 8,-48c7,-24 8,-24 12,8c3,17 2,32 -2,32c-5,0 -6,7 -3,15c4,8 1,15 -5,15c-6,0 -11,-10 -10,-22z"/>
   <path fill="#ffffff" id="svg_8" d="m1556,692c-3,-5 3,-12 15,-15c11,-3 19,-11 18,-19c-1,-7 -1,-24 0,-38c1,-18 4,-21 10,-11c5,7 6,22 4,32c-6,22 7,25 26,7c10,-11 10,-8 0,15c-7,15 -18,27 -25,27c-7,0 -19,3 -27,6c-8,3 -18,1 -21,-4z"/>
   <path fill="#ffffff" id="svg_9" d="m1663,650c-6,-16 -8,-30 -3,-30c5,0 10,6 13,13c10,27 16,-2 7,-33c-10,-34 -6,-50 7,-36c11,11 9,109 -2,113c-6,2 -16,-10 -22,-27z"/>
   <path fill="#ffffff" id="svg_10" d="m1510,630c0,-5 11,-17 24,-26c30,-19 50,-74 41,-113c-11,-50 -79,-117 -141,-140c-111,-42 -197,-16 -246,74c-14,27 -25,52 -22,56c2,4 -3,10 -12,13c-23,9 -24,8 -24,-14c0,-11 4,-20 9,-20c13,0 40,-79 45,-129c4,-49 -7,-98 -25,-115c-9,-8 -10,-7 -4,4c4,8 -6,2 -24,-15c-26,-24 -31,-26 -26,-10c5,13 -4,8 -24,-15c-17,-19 -31,-30 -31,-25c0,6 6,17 13,25c10,12 9,12 -5,1c-16,-12 -18,-11 -18,7c0,13 -10,24 -30,31c-57,19 -60,81 -8,154l23,32l-33,-23c-17,-13 -35,-34 -38,-48c-5,-20 -12,-24 -41,-24c-23,0 -33,-4 -30,-12c2,-7 15,-12 29,-10c22,3 26,-2 32,-31c7,-39 20,-52 57,-62l26,-6l-29,-31c-35,-38 -38,-70 -5,-65c34,6 77,28 134,70c54,40 63,53 63,92l0,24l37,-22c56,-32 172,-31 239,3c75,38 167,135 184,196c8,27 13,52 12,57c-1,4 7,7 17,7c11,0 27,7 35,16c16,16 13,34 -5,34c-6,0 -7,-5 -4,-10c3,-6 -6,-15 -20,-20c-15,-6 -30,-22 -36,-40c-6,-16 -15,-30 -20,-30c-5,0 -9,-14 -9,-31c0,-50 -110,-142 -208,-174c-48,-16 -56,-16 -127,0l-75,16l0,42c0,23 4,37 8,32c37,-52 145,-62 234,-21c65,31 79,41 112,90c29,44 34,41 10,-7l-15,-32l25,28c22,24 24,33 19,80c-3,28 -14,68 -25,87c-21,40 -23,54 -6,44c7,-4 8,-3 4,4c-9,14 -66,16 -66,2z"/>
   <path fill="#ffffff" id="svg_11" d="m781,554c-1,-15 28,-72 41,-80c6,-4 8,-1 4,7c-3,8 -9,22 -12,32c-4,9 -10,17 -14,17c-5,0 -11,8 -13,18c-3,9 -5,12 -6,6z"/>
  </g>
 </g>
</svg>